/vscmnt/brussel_pixiu_data/_data_brussel/112/vsc11236/PredSimResults/SUBJ06_Dhondt2024_3seg/weighted-LRposFixed/worker_04.mot
version=1
nRows=4
nColumns=124
inDegrees=yes
endheader
                time	         pelvis_tilt	         pelvis_list	     pelvis_rotation	           pelvis_tx	           pelvis_ty	           pelvis_tz	       hip_flexion_r	     hip_adduction_r	      hip_rotation_r	        knee_angle_r	       ankle_angle_r	    subtalar_angle_r	         mtp_angle_r	       hip_flexion_l	     hip_adduction_l	      hip_rotation_l	        knee_angle_l	       ankle_angle_l	    subtalar_angle_l	         mtp_angle_l	    lumbar_extension	      lumbar_bending	     lumbar_rotation	          arm_flex_r	           arm_add_r	           arm_rot_r	        elbow_flex_r	          arm_flex_l	           arm_add_l	           arm_rot_l	        elbow_flex_l	glut_med1_r/activation	glut_med2_r/activation	glut_med3_r/activation	glut_min1_r/activation	glut_min2_r/activation	glut_min3_r/activation	semimem_r/activation	semiten_r/activation	bifemlh_r/activation	bifemsh_r/activation	    sar_r/activation	add_long_r/activation	add_brev_r/activation	add_mag1_r/activation	add_mag2_r/activation	add_mag3_r/activation	    tfl_r/activation	   pect_r/activation	   grac_r/activation	glut_max1_r/activation	glut_max2_r/activation	glut_max3_r/activation	iliacus_r/activation	  psoas_r/activation	quad_fem_r/activation	    gem_r/activation	   peri_r/activation	rect_fem_r/activation	vas_med_r/activation	vas_int_r/activation	vas_lat_r/activation	med_gas_r/activation	lat_gas_r/activation	 soleus_r/activation	tib_post_r/activation	flex_dig_r/activation	flex_hal_r/activation	tib_ant_r/activation	per_brev_r/activation	per_long_r/activation	per_tert_r/activation	ext_dig_r/activation	ext_hal_r/activation	glut_med1_l/activation	glut_med2_l/activation	glut_med3_l/activation	glut_min1_l/activation	glut_min2_l/activation	glut_min3_l/activation	semimem_l/activation	semiten_l/activation	bifemlh_l/activation	bifemsh_l/activation	    sar_l/activation	add_long_l/activation	add_brev_l/activation	add_mag1_l/activation	add_mag2_l/activation	add_mag3_l/activation	    tfl_l/activation	   pect_l/activation	   grac_l/activation	glut_max1_l/activation	glut_max2_l/activation	glut_max3_l/activation	iliacus_l/activation	  psoas_l/activation	quad_fem_l/activation	    gem_l/activation	   peri_l/activation	rect_fem_l/activation	vas_med_l/activation	vas_int_l/activation	vas_lat_l/activation	med_gas_l/activation	lat_gas_l/activation	 soleus_l/activation	tib_post_l/activation	flex_dig_l/activation	flex_hal_l/activation	tib_ant_l/activation	per_brev_l/activation	per_long_l/activation	per_tert_l/activation	ext_dig_l/activation	ext_hal_l/activation	 ercspn_r/activation	 ercspn_l/activation	 intobl_r/activation	 intobl_l/activation	 extobl_r/activation	 extobl_l/activation	
          1.73344622	         -2.92981062	          1.89703976	         -1.96689297	          1.92412531	          0.93059181	          0.00248032	        -15.32523559	          1.07939718	         10.02348232	         -5.67745391	          5.53584453	         -2.88679399	         18.41304759	         24.74496698	          3.88270329	          2.68164317	         -4.77646842	          5.69063589	         -6.70659186	          0.19284257	         -4.57551909	         -1.04972002	          1.52195532	          0.84518498	        -13.51223490	         19.09457589	         48.83187792	         -3.89686773	        -13.44972533	         17.52613380	         25.96231521	          0.26602764	          0.12477732	          0.07479450	          0.38036285	          0.29158984	          0.18836403	          0.01000631	          0.01000088	          0.01000082	          0.05490476	          0.11612882	          0.01000018	          0.01000021	          0.01000043	          0.01000171	          0.01000122	          0.44576299	          0.01000092	          0.01000098	          0.02029017	          0.01695708	          0.01000478	          0.32336645	          0.50436992	          0.01588398	          0.01697149	          0.09990527	          0.31001936	          0.01000111	          0.01000124	          0.01000113	          0.43242432	          0.51893301	          0.43806218	          0.28460255	          0.34655080	          0.43890826	          0.01422313	          0.22611962	          0.28551935	          0.01839691	          0.01696185	          0.01442274	          0.01422252	          0.01000120	          0.01000149	          0.01000127	          0.01000112	          0.01000139	          0.26282522	          0.03816866	          0.02746382	          0.01000037	          0.01000054	          0.10013884	          0.20638292	          0.16597700	          0.16100372	          0.09617479	          0.01000081	          0.02128539	          0.07353121	          0.01192712	          0.02045982	          0.07314822	          0.01189659	          0.01066665	          0.01788639	          0.01000088	          0.01000069	          0.01043282	          0.11892995	          0.11675272	          0.09725660	          0.01000018	          0.01000041	          0.01000072	          0.01192596	          0.01003569	          0.01064323	          0.25126399	          0.25734134	          0.16506536	          0.12172898	          0.33881061	          0.03592523	          0.01000001	          0.02934220	          0.01000003	          0.04526660	          0.01000006	          0.07974025	
          1.74500253	         -2.92566381	          2.21645306	         -2.12409265	          1.93974643	          0.93004946	          0.00228375	        -15.46306124	          0.76078653	          9.67709626	         -7.11159238	          4.76347293	         -2.63448178	         19.79575637	         23.82612385	          4.40030501	          2.82582772	         -3.94581434	          4.49800956	         -6.98163883	          0.21058676	         -4.39603781	         -1.55124954	          1.58874773	          0.23704882	        -13.53980291	         19.07174804	         50.32514489	         -4.29090284	        -13.45080357	         17.30238025	         25.00866407	          0.29223564	          0.10462588	          0.06271524	          0.31893526	          0.24449839	          0.15794339	          0.01000172	          0.01000038	          0.01000025	          0.04603771	          0.09737434	          0.03452252	          0.01000179	          0.01000134	          0.01000348	          0.01000092	          0.37377305	          0.06170093	          0.01005754	          0.01701374	          0.01421915	          0.01000183	          0.27114343	          0.42291482	          0.01331898	          0.01423086	          0.08377065	          0.26648991	          0.01000188	          0.01000211	          0.01000196	          0.39360412	          0.47404956	          0.40912808	          0.27769311	          0.36262031	          0.43897563	          0.01192611	          0.18960171	          0.27655076	          0.01542584	          0.01422253	          0.01209352	          0.01192610	          0.01129041	          0.01000020	          0.01192629	          0.01192609	          0.01000540	          0.23015231	          0.03200458	          0.02302852	          0.01000027	          0.01000075	          0.08396688	          0.22822460	          0.19597027	          0.17621545	          0.08064358	          0.01000187	          0.02381122	          0.06165686	          0.01000132	          0.01715571	          0.06198388	          0.01000081	          0.01000036	          0.16252405	          0.07029568	          0.01000043	          0.01629433	          0.09973611	          0.09790375	          0.08155678	          0.01000004	          0.01000009	          0.01000001	          0.01000007	          0.01000042	          0.01000036	          0.25516481	          0.22623427	          0.15148721	          0.11373406	          0.37482248	          0.03012349	          0.01149839	          0.02460347	          0.01375515	          0.03795608	          0.01000008	          0.06686224	
          1.75655884	         -2.91685355	          2.54022292	         -2.26983686	          1.95566132	          0.92951471	          0.00209281	        -15.51233357	          0.43686338	          9.29663375	         -8.71211273	          3.83639048	         -2.33143901	         21.24042405	         22.90511317	          4.88727929	          2.99879444	         -3.66493368	          2.85032305	         -7.23985372	          0.22344241	         -4.19835391	         -2.06369600	          1.64661408	         -0.42637726	        -13.56833366	         19.04758100	         51.78862392	         -4.70288459	        -13.46499104	         17.14792446	         24.07055956	          0.24503992	          0.08772887	          0.05258677	          0.26742776	          0.20501212	          0.13243566	          0.01004416	          0.01000265	          0.01000272	          0.03860268	          0.08164859	          0.05025264	          0.01005926	          0.01014046	          0.01025615	          0.01041101	          0.31340910	          0.05174295	          0.01000928	          0.01426645	          0.01192400	          0.01002580	          0.22735400	          0.35461444	          0.01116825	          0.01193282	          0.07024175	          0.22345208	          0.02837158	          0.02471002	          0.01607951	          0.33849725	          0.41702465	          0.37201118	          0.25559183	          0.30550166	          0.39353091	          0.01000007	          0.16020383	          0.28648150	          0.01293461	          0.01192562	          0.01014049	          0.01000009	          0.01000013	          0.01000264	          0.01000031	          0.01000026	          0.01000027	          0.19298289	          0.02683636	          0.01930964	          0.01000067	          0.01000830	          0.07040643	          0.19437471	          0.18354782	          0.14775788	          0.06761987	          0.01000041	          0.01997045	          0.13144773	          0.01000137	          0.01963281	          0.05197398	          0.01000826	          0.01422231	          0.22956083	          0.05894367	          0.01002423	          0.01366288	          0.08362896	          0.08209256	          0.06838559	          0.01422309	          0.01422350	          0.01328036	          0.01422342	          0.01244986	          0.01422282	          0.21911102	          0.21324627	          0.14568237	          0.09536617	          0.44544885	          0.02525865	          0.01894634	          0.02063004	          0.01422305	          0.03182620	          0.01192616	          0.05606403	
          1.76811515	         -2.90509134	          2.88083377	         -2.40086586	          1.97175367	          0.92903579	          0.00192910	        -15.44525354	          0.09858140	          8.87306348	        -10.50545231	          2.73402249	         -1.99342618	         22.71194195	         21.95123931	          5.32236582	          3.21941476	         -3.48878588	          0.96519079	         -7.49284536	          0.22310867	         -3.99044526	         -2.60200486	          1.69336049	         -1.12498922	        -13.58801481	         19.02208832	         53.20164698	         -5.10883348	        -13.49838865	         17.09179025	         23.13584165	          0.26656867	          0.07356073	          0.04409405	          0.35806574	          0.17190291	          0.11104741	          0.01000692	          0.01000039	          0.01000023	          0.03236840	          0.06846253	          0.09103297	          0.01000045	          0.01000057	          0.01000135	          0.01000097	          0.26279406	          0.10186372	          0.01000087	          0.01196282	          0.01000115	          0.01000076	          0.19063660	          0.29734508	          0.01000012	          0.01000590	          0.05889777	          0.18736478	          0.02378997	          0.02071978	          0.01348302	          0.28383014	          0.34967549	          0.31193158	          0.23076445	          0.25616407	          0.32997652	          0.01000004	          0.16281797	          0.24561814	          0.01084575	          0.01000007	          0.01000023	          0.23961426	          0.22879744	          0.23533207	          0.10871353	          0.07419201	          0.16887860	          0.16181629	          0.06970107	          0.04493002	          0.01696294	          0.01002323	          0.05903588	          0.16298339	          0.15390520	          0.12389541	          0.05669961	          0.01000207	          0.01674583	          0.11021949	          0.08706009	          0.02947183	          0.04358046	          0.01192530	          0.01192583	          0.19248698	          0.04942465	          0.06725599	          0.01145637	          0.07012307	          0.06883481	          0.05734150	          0.01192608	          0.01192644	          0.01113559	          0.01192637	          0.01043930	          0.01192591	          0.43235776	          0.30672272	          0.16090108	          0.48902870	          0.54976530	          0.24564013	          0.05056154	          0.02253291	          0.01192604	          0.02668634	          0.01000023	          0.04700973	
